<?xml version="1.0" encoding="UTF-8" standalone="no"?>
<!DOCTYPE svg PUBLIC "-//W3C//DTD SVG 1.1//EN" "http://www.w3.org/Graphics/SVG/1.1/DTD/svg11.dtd">
<svg width="100%" height="100%" viewBox="0 0 517 600" version="1.1" xmlns="http://www.w3.org/2000/svg" xmlns:xlink="http://www.w3.org/1999/xlink" xml:space="preserve" xmlns:serif="http://www.serif.com/" style="fill-rule:evenodd;clip-rule:evenodd;stroke-linecap:round;stroke-linejoin:round;stroke-miterlimit:1.5;">
    <g transform="matrix(3.87307,0,0,4.16667,17.604,0.291655)">
        <path d="M1.08,36.67L1.08,107.19L62.15,142.45L123.22,107.19L123.22,36.67L62.15,1.41L1.08,36.67" style="fill:rgb(160,217,230);fill-rule:nonzero;"/>
        <clipPath id="_clip1">
            <path d="M1.08,36.67L1.08,107.19L62.15,142.45L123.22,107.19L123.22,36.67L62.15,1.41L1.08,36.67" clip-rule="nonzero"/>
        </clipPath>
        <g clip-path="url(#_clip1)">
            <g transform="matrix(0.24,0,0,0.24,0,-0.14)">
                <path d="M4.5,153.375L513.417,153.375L258.333,6.458L4.5,153.375Z" style="fill:white;"/>
            </g>
            <g transform="matrix(0.24,0,0,0.240766,0,-0.594945)">
                <path d="M4.5,447.208C176.475,506.185 346.103,505.912 513.417,447.208L258.958,594.125L4.5,447.208" style="fill:white;"/>
            </g>
        </g>
    </g>
    <g transform="matrix(1.08429,0,0,1.37281,-24.9701,-88.7451)">
        <ellipse cx="261.281" cy="188.816" rx="221.691" ry="43.937" style="fill:rgb(160,217,230);stroke:white;stroke-width:6.74px;"/>
    </g>
    <g transform="matrix(1.15079,0,0,1.41771,-42.3448,159.756)">
        <path d="M482.972,188.816C482.972,213.066 383.635,232.754 261.281,232.754C138.926,232.754 39.59,213.066 39.59,188.816" style="fill:none;stroke:white;stroke-width:6.45px;"/>
    </g>
    <g transform="matrix(1.15079,0,0,1.41771,-42.3448,-11.563)">
        <path d="M482.972,188.816C482.972,213.066 383.635,232.754 261.281,232.754C138.926,232.754 39.59,213.066 39.59,188.816" style="fill:none;stroke:white;stroke-width:6.45px;"/>
    </g>
    <g transform="matrix(1.15079,0,0,1.41771,-42.3448,74.0967)">
        <path d="M482.972,188.816C482.972,213.066 383.635,232.754 261.281,232.754C138.926,232.754 39.59,213.066 39.59,188.816" style="fill:none;stroke:white;stroke-width:6.45px;"/>
    </g>
    <g transform="matrix(4.16667,0,0,4.16667,0,0.583333)">
        <path d="M1.08,36.67L1.08,107.19L62.15,142.45L123.22,107.19L123.22,36.67L62.15,1.41L1.08,36.67" style="fill:none;fill-rule:nonzero;stroke:rgb(6,47,110);stroke-width:2.56px;stroke-miterlimit:10;"/>
    </g>
    <g transform="matrix(1,0,0,1,-36.5148,39.0782)">
        <g transform="matrix(0.997846,0.0656032,-0.0656032,0.997846,17.0143,-13.3773)">
            <text x="212.2px" y="252.384px" style="font-family:'AvenirNext-Heavy', 'Avenir Next', sans-serif;font-weight:900;font-size:50px;fill:rgb(6,47,110);">h</text>
        </g>
        <g transform="matrix(0.999465,0.0326991,-0.0326991,0.999465,8.45488,-7.88995)">
            <text x="245.452px" y="254.552px" style="font-family:'AvenirNext-Heavy', 'Avenir Next', sans-serif;font-weight:900;font-size:50px;fill:rgb(6,47,110);">e</text>
        </g>
        <g transform="matrix(0.999991,0.00416153,-0.00416153,0.999991,1.0659,-1.14917)">
            <text x="276.672px" y="255.556px" style="font-family:'AvenirNext-Heavy', 'Avenir Next', sans-serif;font-weight:900;font-size:50px;fill:rgb(6,47,110);">a</text>
        </g>
        <g transform="matrix(0.999832,-0.0183157,0.0183157,0.999832,-4.63022,5.65176)">
            <text x="306.234px" y="255.606px" style="font-family:'AvenirNext-Heavy', 'Avenir Next', sans-serif;font-weight:900;font-size:50px;fill:rgb(6,47,110);">l</text>
        </g>
        <g transform="matrix(0.999328,-0.0366671,0.0366671,0.999328,-9.14402,12.0272)">
            <text x="323.328px" y="255.309px" style="font-family:'AvenirNext-Heavy', 'Avenir Next', sans-serif;font-weight:900;font-size:50px;fill:rgb(6,47,110);">t</text>
        </g>
        <g transform="matrix(0.997894,-0.0648623,0.0648623,0.997894,-15.7907,22.8698)">
            <text x="344.324px" y="254.629px" style="font-family:'AvenirNext-Heavy', 'Avenir Next', sans-serif;font-weight:900;font-size:50px;fill:rgb(6,47,110);">h</text>
        </g>
    </g>
    <g transform="matrix(1,0,0,1,-36.4538,208.693)">
        <g transform="matrix(0.987707,0.156315,-0.156315,0.987707,40.1452,-20.1388)">
            <text x="148.115px" y="245.174px" style="font-family:'AvenirNext-Heavy', 'Avenir Next', sans-serif;font-weight:900;font-size:50px;fill:rgb(6,47,110);">i</text>
        </g>
        <g transform="matrix(0.99266,0.120942,-0.120942,0.99266,31.1973,-18.1099)">
            <text x="164.789px" y="247.951px" style="font-family:'AvenirNext-Heavy', 'Avenir Next', sans-serif;font-weight:900;font-size:50px;fill:rgb(6,47,110);">n</text>
        </g>
        <g transform="matrix(0.996156,0.0876006,-0.0876006,0.996156,22.8255,-16.3664)">
            <text x="197.884px" y="251.879px" style="font-family:'AvenirNext-Heavy', 'Avenir Next', sans-serif;font-weight:900;font-size:50px;fill:rgb(6,47,110);">f</text>
        </g>
        <g transform="matrix(0.998284,0.0585656,-0.0585656,0.998284,15.2414,-12.3915)">
            <text x="219.023px" y="253.826px" style="font-family:'AvenirNext-Heavy', 'Avenir Next', sans-serif;font-weight:900;font-size:50px;fill:rgb(6,47,110);">o</text>
        </g>
        <g transform="matrix(0.999571,0.0292847,-0.0292847,0.999571,7.59645,-7.27514)">
            <text x="252.173px" y="255.707px" style="font-family:'AvenirNext-Heavy', 'Avenir Next', sans-serif;font-weight:900;font-size:50px;fill:rgb(6,47,110);">r</text>
        </g>
        <g transform="matrix(0.999995,-0.00329105,0.00329105,0.999995,-0.842986,0.904473)">
            <text x="274.406px" y="256.597px" style="font-family:'AvenirNext-Heavy', 'Avenir Next', sans-serif;font-weight:900;font-size:50px;fill:rgb(6,47,110);">m</text>
        </g>
        <g transform="matrix(0.999171,-0.0407026,0.0407026,0.999171,-10.1625,13.3688)">
            <text x="323.234px" y="256.257px" style="font-family:'AvenirNext-Heavy', 'Avenir Next', sans-serif;font-weight:900;font-size:50px;fill:rgb(6,47,110);">a</text>
        </g>
        <g transform="matrix(0.997794,-0.0663897,0.0663897,0.997794,-16.1541,23.9444)">
            <text x="352.19px" y="255.026px" style="font-family:'AvenirNext-Heavy', 'Avenir Next', sans-serif;font-weight:900;font-size:50px;fill:rgb(6,47,110);">t</text>
        </g>
        <g transform="matrix(0.996148,-0.0876919,0.0876919,0.996148,-20.8013,33.7048)">
            <text x="373.214px" y="253.604px" style="font-family:'AvenirNext-Heavy', 'Avenir Next', sans-serif;font-weight:900;font-size:50px;fill:rgb(6,47,110);">i</text>
        </g>
        <g transform="matrix(0.993361,-0.11504,0.11504,0.993361,-26.4228,46.5549)">
            <text x="390.13px" y="252.199px" style="font-family:'AvenirNext-Heavy', 'Avenir Next', sans-serif;font-weight:900;font-size:50px;fill:rgb(6,47,110);">c</text>
        </g>
        <g transform="matrix(0.98885,-0.148915,0.148915,0.98885,-32.4679,64.7614)">
            <text x="416.231px" y="249.196px" style="font-family:'AvenirNext-Heavy', 'Avenir Next', sans-serif;font-weight:900;font-size:50px;fill:rgb(6,47,110);">s</text>
        </g>
    </g>
    <g id="Page-1" transform="matrix(0.102943,0,0,0.102943,232.605,418.708)">
        <g id="_048---Data-Lake" serif:id="048---Data-Lake" transform="matrix(1.16207,0,0,1.16207,-20.272,-839.582)">
            <path id="Shape" d="M136.533,85.333C150.672,85.333 162.133,73.872 162.133,59.733C162.133,45.595 150.672,34.133 136.533,34.133C122.395,34.133 110.933,45.595 110.933,59.733C110.933,73.872 122.395,85.333 136.533,85.333ZM136.533,51.2C141.246,51.2 145.067,55.021 145.067,59.733C145.067,64.446 141.246,68.267 136.533,68.267C131.821,68.267 128,64.446 128,59.733C128,55.021 131.821,51.2 136.533,51.2Z" style="fill:rgb(9,47,110);fill-opacity:0.75;fill-rule:nonzero;stroke:rgb(9,47,110);stroke-opacity:0.75;stroke-width:3.48px;stroke-linecap:butt;stroke-miterlimit:2;"/>
            <circle id="Oval" cx="187.733" cy="59.733" r="8.533" style="fill:rgb(9,47,110);fill-opacity:0.75;stroke:rgb(9,47,110);stroke-opacity:0.75;stroke-width:3.48px;stroke-linecap:butt;stroke-miterlimit:2;"/>
            <path id="Shape1" serif:id="Shape" d="M256,68.267L392.533,68.267C397.246,68.267 401.067,64.446 401.067,59.733C401.067,55.021 397.246,51.2 392.533,51.2L256,51.2C251.287,51.2 247.467,55.021 247.467,59.733C247.467,64.446 251.287,68.267 256,68.267Z" style="fill:rgb(9,47,110);fill-opacity:0.75;fill-rule:nonzero;stroke:rgb(9,47,110);stroke-opacity:0.75;stroke-width:3.48px;stroke-linecap:butt;stroke-miterlimit:2;"/>
            <path id="Shape2" serif:id="Shape" d="M136.533,221.867C150.672,221.867 162.133,210.405 162.133,196.267C162.133,182.128 150.672,170.667 136.533,170.667C122.395,170.667 110.933,182.128 110.933,196.267C110.933,210.405 122.395,221.867 136.533,221.867ZM136.533,187.733C141.246,187.733 145.067,191.554 145.067,196.267C145.067,200.979 141.246,204.8 136.533,204.8C131.821,204.8 128,200.979 128,196.267C128,191.554 131.821,187.733 136.533,187.733Z" style="fill:rgb(9,47,110);fill-opacity:0.75;fill-rule:nonzero;stroke:rgb(9,47,110);stroke-opacity:0.75;stroke-width:3.48px;stroke-linecap:butt;stroke-miterlimit:2;"/>
            <circle id="Oval1" serif:id="Oval" cx="187.733" cy="196.267" r="8.533" style="fill:rgb(9,47,110);fill-opacity:0.75;stroke:rgb(9,47,110);stroke-opacity:0.75;stroke-width:3.48px;stroke-linecap:butt;stroke-miterlimit:2;"/>
            <path id="Shape3" serif:id="Shape" d="M256,204.8L392.533,204.8C397.246,204.8 401.067,200.979 401.067,196.267C401.067,191.554 397.246,187.733 392.533,187.733L256,187.733C251.287,187.733 247.467,191.554 247.467,196.267C247.467,200.979 251.287,204.8 256,204.8Z" style="fill:rgb(9,47,110);fill-opacity:0.75;fill-rule:nonzero;stroke:rgb(9,47,110);stroke-opacity:0.75;stroke-width:3.48px;stroke-linecap:butt;stroke-miterlimit:2;"/>
            <path id="Shape4" serif:id="Shape" d="M506.394,324.796C503.017,323.575 499.238,324.598 496.939,327.356C494.728,330.71 490.98,332.729 486.963,332.729C482.946,332.729 479.198,330.71 476.988,327.356C471.329,320.429 462.891,316.367 453.948,316.262C447.062,316.346 440.421,318.833 435.174,323.294L435.174,298.667C435.13,287.857 428.3,278.24 418.108,274.637L418.108,254.43C428.31,250.835 435.151,241.217 435.2,230.4L435.2,162.133C435.155,151.323 428.325,141.707 418.133,138.103L418.133,117.897C428.325,114.293 435.155,104.677 435.2,93.867L435.2,25.6C435.2,11.462 423.738,0 409.6,0L102.4,0C88.262,0 76.8,11.462 76.8,25.6L76.8,93.867C76.845,104.677 83.675,114.293 93.867,117.897L93.867,138.103C83.675,141.707 76.845,151.323 76.8,162.133L76.8,230.4C76.845,241.21 83.675,250.827 93.867,254.43L93.867,274.637C83.675,278.24 76.845,287.857 76.8,298.667L76.8,323.2C71.551,318.744 64.911,316.26 58.027,316.177C49.085,316.291 40.652,320.352 34.987,327.27C32.79,330.633 29.045,332.66 25.028,332.66C21.012,332.66 17.267,330.633 15.07,327.27C12.759,324.516 8.969,323.506 5.594,324.745C2.218,325.983 -0.019,329.205 0,332.8L0,486.4C0,500.538 11.462,512 25.6,512L486.4,512C500.538,512 512,500.538 512,486.4L512,332.8C511.995,329.22 509.756,326.024 506.394,324.796ZM110.933,256L401.067,256L401.067,273.067L110.933,273.067L110.933,256ZM110.933,119.467L401.067,119.467L401.067,136.533L110.933,136.533L110.933,119.467ZM93.867,25.6C93.867,20.887 97.687,17.067 102.4,17.067L409.6,17.067C414.313,17.067 418.133,20.887 418.133,25.6L418.133,93.867C418.133,98.579 414.313,102.4 409.6,102.4L102.4,102.4C97.687,102.4 93.867,98.579 93.867,93.867L93.867,25.6ZM93.867,162.133C93.867,157.421 97.687,153.6 102.4,153.6L409.6,153.6C414.313,153.6 418.133,157.421 418.133,162.133L418.133,230.4C418.133,235.113 414.313,238.933 409.6,238.933L102.4,238.933C97.687,238.933 93.867,235.113 93.867,230.4L93.867,162.133ZM102.4,290.133L409.6,290.133C414.313,290.133 418.133,293.954 418.133,298.667L418.133,331.836C415.334,331.113 412.836,329.521 410.999,327.287C405.425,320.248 396.939,316.143 387.959,316.143C378.98,316.143 370.494,320.248 364.919,327.287C362.533,330.375 358.851,332.182 354.948,332.182C351.046,332.182 347.364,330.375 344.977,327.287C339.401,320.251 330.915,316.148 321.937,316.148C312.959,316.148 304.473,320.251 298.897,327.287C296.51,330.378 292.826,332.188 288.922,332.188C285.017,332.188 281.333,330.378 278.946,327.287C273.372,320.248 264.885,316.143 255.906,316.143C246.927,316.143 238.44,320.248 232.866,327.287C230.479,330.375 226.797,332.182 222.895,332.182C218.993,332.182 215.311,330.375 212.924,327.287C207.348,320.251 198.862,316.148 189.884,316.148C180.906,316.148 172.42,320.251 166.844,327.287C164.459,330.378 160.776,332.188 156.873,332.188C152.969,332.188 149.286,330.378 146.901,327.287C141.325,320.251 132.839,316.148 123.861,316.148C114.883,316.148 106.397,320.251 100.821,327.287C99,329.516 96.511,331.101 93.722,331.81L93.722,298.667C93.721,296.378 94.64,294.185 96.272,292.581C97.904,290.976 100.112,290.094 102.4,290.133ZM494.933,486.4C494.933,491.113 491.113,494.933 486.4,494.933L25.6,494.933C20.887,494.933 17.067,491.113 17.067,486.4L17.067,348.663C28.546,351.815 40.792,347.715 48.06,338.287C50.445,335.197 54.127,333.387 58.031,333.387C61.934,333.387 65.617,335.197 68.002,338.287C73.576,345.326 82.063,349.431 91.042,349.431C100.021,349.431 108.508,345.326 114.082,338.287C116.469,335.196 120.153,333.387 124.058,333.387C127.962,333.387 131.646,335.196 134.033,338.287C139.609,345.323 148.095,349.426 157.073,349.426C166.051,349.426 174.537,345.323 180.113,338.287C182.498,335.2 186.179,333.392 190.08,333.392C193.981,333.392 197.662,335.2 200.047,338.287C205.621,345.326 214.108,349.431 223.087,349.431C232.066,349.431 240.553,345.326 246.127,338.287C248.514,335.196 252.198,333.387 256.102,333.387C260.007,333.387 263.691,335.196 266.078,338.287C271.652,345.326 280.139,349.431 289.118,349.431C298.097,349.431 306.584,345.326 312.158,338.287C314.543,335.2 318.224,333.392 322.125,333.392C326.026,333.392 329.707,335.2 332.092,338.287C337.668,345.323 346.154,349.426 355.132,349.426C364.11,349.426 372.596,345.323 378.172,338.287C380.558,335.196 384.243,333.387 388.147,333.387C392.052,333.387 395.736,335.196 398.123,338.287C403.696,345.313 412.173,349.41 421.141,349.41C430.11,349.41 438.587,345.313 444.16,338.287C446.547,335.196 450.231,333.387 454.135,333.387C458.04,333.387 461.724,335.196 464.111,338.287C471.344,347.657 483.506,351.751 494.933,348.663L494.933,486.4Z" style="fill:rgb(9,47,110);fill-opacity:0.75;fill-rule:nonzero;stroke:rgb(9,47,110);stroke-opacity:0.75;stroke-width:3.48px;stroke-linecap:butt;stroke-miterlimit:2;"/>
            <path id="Shape5" serif:id="Shape" d="M76.8,384C80.945,384.139 84.806,386.143 87.305,389.453C93.049,396.662 101.717,400.922 110.933,401.067C119.882,400.995 128.339,396.96 134.025,390.05C134.229,389.85 134.423,389.639 134.605,389.419C137.077,386.12 140.958,384.179 145.079,384.179C149.201,384.179 153.082,386.12 155.554,389.419C158.556,393.052 163.935,393.564 167.569,390.562C171.203,387.56 171.715,382.181 168.713,378.547C162.964,371.335 154.289,367.074 145.067,366.933C136.135,367.015 127.698,371.049 122.027,377.95C121.823,378.148 121.632,378.359 121.455,378.581C118.984,381.896 115.093,383.849 110.959,383.849C106.825,383.849 102.933,381.896 100.463,378.581C94.719,371.35 86.034,367.075 76.8,366.933C67.581,367.075 58.909,371.336 53.163,378.547C51.221,380.898 50.68,384.106 51.745,386.963C52.809,389.82 55.317,391.892 58.324,392.399C61.331,392.905 64.379,391.769 66.321,389.419C68.813,386.119 72.667,384.126 76.8,384Z" style="fill:rgb(9,47,110);fill-opacity:0.75;fill-rule:nonzero;stroke:rgb(9,47,110);stroke-opacity:0.75;stroke-width:3.48px;stroke-linecap:butt;stroke-miterlimit:2;"/>
            <path id="Shape6" serif:id="Shape" d="M290.133,401.067C281.202,401.149 272.765,405.183 267.093,412.083C266.889,412.281 266.698,412.492 266.522,412.715C264.051,416.03 260.16,417.983 256.026,417.983C251.891,417.983 248,416.03 245.53,412.715C239.785,405.483 231.101,401.208 221.867,401.067C212.647,401.209 203.975,405.469 198.229,412.681C196.287,415.031 195.747,418.239 196.811,421.096C197.876,423.953 200.384,426.025 203.391,426.532C206.397,427.038 209.446,425.903 211.388,423.552C213.794,420.143 217.707,418.116 221.879,418.116C226.052,418.116 229.965,420.143 232.371,423.552C238.109,430.774 246.778,435.047 256,435.2C264.949,435.128 273.405,431.094 279.091,424.183C279.296,423.983 279.489,423.773 279.671,423.552C282.143,420.254 286.024,418.313 290.146,418.313C294.268,418.313 298.149,420.254 300.621,423.552C302.563,425.903 305.611,427.038 308.618,426.532C311.624,426.025 314.132,423.953 315.197,421.096C316.262,418.239 315.721,415.031 313.779,412.681C308.03,405.468 299.355,401.207 290.133,401.067Z" style="fill:rgb(9,47,110);fill-opacity:0.75;fill-rule:nonzero;stroke:rgb(9,47,110);stroke-opacity:0.75;stroke-width:3.48px;stroke-linecap:butt;stroke-miterlimit:2;"/>
            <path id="Shape7" serif:id="Shape" d="M162.133,443.733C153.202,443.815 144.765,447.849 139.093,454.75C138.889,454.948 138.698,455.159 138.522,455.381C136.051,458.696 132.16,460.649 128.026,460.649C123.891,460.649 120,458.696 117.53,455.381C111.785,448.15 103.101,443.875 93.867,443.733C84.647,443.875 75.975,448.136 70.229,455.347C68.287,457.698 67.747,460.906 68.811,463.763C69.876,466.62 72.384,468.692 75.391,469.199C78.397,469.705 81.446,468.569 83.388,466.219C85.794,462.81 89.707,460.783 93.879,460.783C98.052,460.783 101.965,462.81 104.371,466.219C110.109,473.44 118.778,477.714 128,477.867C136.949,477.795 145.405,473.76 151.091,466.85C151.296,466.65 151.489,466.439 151.671,466.219C154.143,462.92 158.024,460.979 162.146,460.979C166.268,460.979 170.149,462.92 172.621,466.219C174.563,468.569 177.611,469.705 180.618,469.199C183.624,468.692 186.132,466.62 187.197,463.763C188.262,460.906 187.721,457.698 185.779,455.347C180.03,448.135 171.355,443.874 162.133,443.733Z" style="fill:rgb(9,47,110);fill-opacity:0.75;fill-rule:nonzero;stroke:rgb(9,47,110);stroke-opacity:0.75;stroke-width:3.48px;stroke-linecap:butt;stroke-miterlimit:2;"/>
            <path id="Shape8" serif:id="Shape" d="M418.133,443.733C409.202,443.815 400.765,447.849 395.093,454.75C394.889,454.948 394.698,455.159 394.522,455.381C392.051,458.696 388.16,460.649 384.026,460.649C379.891,460.649 376,458.696 373.53,455.381C367.785,448.15 359.101,443.875 349.867,443.733C340.647,443.875 331.975,448.136 326.229,455.347C323.227,458.981 323.739,464.36 327.373,467.362C331.006,470.364 336.386,469.852 339.388,466.219C341.794,462.81 345.707,460.783 349.879,460.783C354.052,460.783 357.965,462.81 360.371,466.219C366.109,473.44 374.778,477.714 384,477.867C392.949,477.795 401.405,473.76 407.091,466.85C407.296,466.65 407.489,466.439 407.671,466.219C410.143,462.92 414.024,460.979 418.146,460.979C422.268,460.979 426.149,462.92 428.621,466.219C430.563,468.569 433.611,469.705 436.618,469.199C439.624,468.692 442.132,466.62 443.197,463.763C444.262,460.906 443.721,457.698 441.779,455.347C436.03,448.135 427.355,443.874 418.133,443.733Z" style="fill:rgb(9,47,110);fill-opacity:0.75;fill-rule:nonzero;stroke:rgb(9,47,110);stroke-opacity:0.75;stroke-width:3.48px;stroke-linecap:butt;stroke-miterlimit:2;"/>
            <path id="Shape9" serif:id="Shape" d="M435.2,366.933C426.268,367.015 417.832,371.049 412.16,377.95C411.956,378.148 411.765,378.359 411.588,378.581C409.118,381.896 405.227,383.849 401.092,383.849C396.958,383.849 393.067,381.896 390.596,378.581C384.852,371.35 376.168,367.075 366.933,366.933C357.714,367.075 349.042,371.336 343.296,378.547C340.294,382.181 340.806,387.56 344.439,390.562C348.073,393.564 353.452,393.052 356.454,389.419C358.861,386.01 362.773,383.983 366.946,383.983C371.119,383.983 375.031,386.01 377.438,389.419C383.175,396.64 391.845,400.914 401.067,401.067C410.015,400.995 418.472,396.96 424.158,390.05C424.362,389.85 424.556,389.639 424.738,389.419C427.21,386.12 431.091,384.179 435.213,384.179C439.335,384.179 443.216,386.12 445.687,389.419C447.629,391.769 450.678,392.905 453.685,392.399C456.691,391.892 459.199,389.82 460.264,386.963C461.328,384.106 460.788,380.898 458.846,378.547C453.097,371.335 444.422,367.074 435.2,366.933Z" style="fill:rgb(9,47,110);fill-opacity:0.75;fill-rule:nonzero;stroke:rgb(9,47,110);stroke-opacity:0.75;stroke-width:3.48px;stroke-linecap:butt;stroke-miterlimit:2;"/>
        </g>
        <g transform="matrix(6.66127,0,0,6.66127,-1944.49,-1090.57)">
            <path d="M84.41,32.43C84.639,31.399 84.753,30.346 84.75,29.29C84.75,29.286 84.75,29.283 84.75,29.279C84.75,21.209 78.11,14.569 70.04,14.569C68.09,14.569 66.159,14.957 64.36,15.71C60.756,9.528 54.117,5.715 46.962,5.715C37.122,5.715 28.651,12.926 27.08,22.64L26.48,22.64C14.195,22.692 4.115,32.814 4.115,45.1C4.115,56.858 13.348,66.727 25.08,67.51L25.08,87.59C25.08,88.413 25.757,89.09 26.58,89.09L30.82,89.09L30.82,92.78C30.82,93.603 31.497,94.28 32.32,94.28L74.77,94.28C75.593,94.28 76.27,93.603 76.27,92.78L76.27,67.55L78.27,67.55C88.19,67.55 95.95,59.55 95.95,49.37C95.991,41.893 91.383,35.129 84.41,32.43ZM28.08,86.09L28.08,35.78L67.53,35.78L67.53,48.56C67.417,48.496 67.29,48.461 67.16,48.46L65.46,48.46C65.121,48.459 64.822,48.691 64.74,49.02L63.94,52.12L62.81,45C62.751,44.635 62.43,44.365 62.06,44.37C61.691,44.371 61.374,44.645 61.32,45.01L60.44,51L59.44,42.4C59.395,42.027 59.076,41.742 58.7,41.74C58.322,41.742 58,42.025 57.95,42.4L56.85,51.4L56,47C55.939,46.653 55.642,46.393 55.29,46.38C54.944,46.387 54.64,46.618 54.54,46.95L53.43,51.38L52.57,49C52.46,48.709 52.181,48.514 51.87,48.51L50.38,48.51C49.991,43.602 45.843,39.77 40.92,39.77C35.714,39.77 31.43,44.054 31.43,49.26C31.43,54.466 35.714,58.75 40.92,58.75C45.843,58.75 49.991,54.918 50.38,50.01L51.38,50.01L52.9,54.21C53.008,54.505 53.29,54.702 53.604,54.702C53.945,54.702 54.244,54.47 54.33,54.14L55.19,50.69L56.27,56.58C56.352,56.935 56.666,57.191 57.03,57.2C57.398,57.188 57.706,56.906 57.75,56.54L58.7,48.82L59.7,56.89C59.745,57.263 60.064,57.548 60.44,57.55C60.809,57.549 61.126,57.275 61.18,56.91L62.18,50.12L63,55.92C63.057,56.271 63.355,56.536 63.71,56.55C64.065,56.574 64.388,56.336 64.47,55.99L66.03,49.99L67.14,49.99C67.271,49.986 67.398,49.948 67.51,49.88L67.51,86.09L28.08,86.09ZM34.47,51.33L34.47,47.09L38.81,47.09L38.81,42.75L43.05,42.75L43.05,47.09L47.39,47.09L47.39,51.33L43.05,51.33L43.05,55.66L38.81,55.66L38.81,51.33L34.47,51.33ZM73.27,91.33L33.82,91.33L33.82,89.09L69,89.09C69.823,89.09 70.5,88.413 70.5,87.59L70.5,41L73.24,41L73.27,91.33ZM78.27,62.6L76.27,62.6L76.27,39.48C76.27,38.657 75.593,37.98 74.77,37.98L70.53,37.98L70.53,34.28C70.53,33.457 69.853,32.78 69.03,32.78L26.58,32.78C25.757,32.78 25.08,33.457 25.08,34.28L25.08,62.48C16.029,61.795 8.947,54.156 8.947,45.08C8.947,35.507 16.825,27.63 26.397,27.63C26.425,27.63 26.452,27.63 26.48,27.63C27.317,27.64 28.152,27.707 28.98,27.83C29.1,27.847 29.22,27.856 29.341,27.856C30.685,27.856 31.8,26.773 31.84,25.43C32.031,17.261 38.804,10.645 46.976,10.645C53.122,10.645 58.684,14.387 61,20.08C61.388,21.009 62.3,21.617 63.307,21.617C63.799,21.617 64.28,21.472 64.69,21.2C66.284,20.138 68.157,19.572 70.072,19.572C75.399,19.572 79.782,23.955 79.782,29.282C79.782,30.594 79.516,31.893 79,33.1C78.69,33.772 78.69,34.548 79,35.22C79.338,35.882 79.954,36.359 80.68,36.52C86.699,37.827 91.023,43.211 91,49.37C91,56.76 85.4,62.55 78.29,62.55L78.27,62.6ZM60.94,65.31L33.53,65.31L33.53,62.87L60.94,62.87L60.94,65.31ZM55.47,70.93L33.53,70.93L33.53,68.49L55.47,68.49L55.47,70.93ZM33.53,79.73L63,79.73L63,82.17L33.53,82.17L33.53,79.73ZM61.2,76.55L33.53,76.55L33.53,74.11L61.2,74.11L61.2,76.55Z" style="fill:rgb(9,47,110);fill-opacity:0.75;fill-rule:nonzero;"/>
        </g>
        <g transform="matrix(1.01104,0,0,1.01104,965.804,-856.475)">
            <path d="M410.332,160C366.238,160 330.332,124.117 330.332,80C330.332,35.883 366.238,0 410.332,0C454.43,0 490.332,35.883 490.332,80C490.332,124.117 454.43,160 410.332,160ZM410.332,32C383.879,32 362.332,53.523 362.332,80C362.332,106.477 383.879,128 410.332,128C436.785,128 458.332,106.477 458.332,80C458.332,53.523 436.785,32 410.332,32Z" style="fill:rgb(9,47,110);fill-opacity:0.75;fill-rule:nonzero;"/>
            <path d="M410.332,512C366.238,512 330.332,476.117 330.332,432C330.332,387.883 366.238,352 410.332,352C454.43,352 490.332,387.883 490.332,432C490.332,476.117 454.43,512 410.332,512ZM410.332,384C383.879,384 362.332,405.523 362.332,432C362.332,458.477 383.879,480 410.332,480C436.785,480 458.332,458.477 458.332,432C458.332,405.523 436.785,384 410.332,384Z" style="fill:rgb(9,47,110);fill-opacity:0.75;fill-rule:nonzero;"/>
            <path d="M101,336C56.902,336 21,300.117 21,256C21,211.883 56.902,176 101,176C145.098,176 181,211.883 181,256C181,300.117 145.098,336 101,336ZM101,208C74.547,208 53,229.523 53,256C53,282.477 74.547,304 101,304C127.453,304 149,282.477 149,256C149,229.523 127.453,208 101,208Z" style="fill:rgb(9,47,110);fill-opacity:0.75;fill-rule:nonzero;"/>
            <path d="M156.703,240.426C151.133,240.426 145.715,237.523 142.793,232.363C138.418,224.684 141.086,214.91 148.766,210.539L346.719,97.684C354.375,93.27 364.168,95.957 368.52,103.66C372.895,111.34 370.227,121.109 362.547,125.484L164.594,238.336C162.098,239.742 159.391,240.426 156.703,240.426Z" style="fill:rgb(9,47,110);fill-opacity:0.75;fill-rule:nonzero;"/>
            <path d="M354.633,416.426C351.945,416.426 349.234,415.742 346.738,414.316L148.785,301.461C141.105,297.09 138.441,287.316 142.813,279.637C147.164,271.937 156.938,269.27 164.617,273.664L362.566,386.516C370.246,390.891 372.914,400.66 368.543,408.34C365.598,413.523 360.18,416.426 354.633,416.426Z" style="fill:rgb(9,47,110);fill-opacity:0.75;fill-rule:nonzero;"/>
        </g>
        <g transform="matrix(6.10224,0,0,6.10224,1864.77,-1099.99)">
            <path d="M92.678,90.852L84.292,79.964L84.292,55.029C84.292,53.925 83.396,53.029 82.292,53.029L29.354,53.029C28.25,53.029 27.354,53.925 27.354,55.029L27.354,79.964L18.822,91.041C18.357,91.645 18.276,92.461 18.612,93.145C18.948,93.829 19.644,94.262 20.406,94.262L91.24,94.262C91.247,94.261 91.254,94.261 91.26,94.262C92.364,94.262 93.26,93.366 93.26,92.262C93.26,91.712 93.038,91.214 92.678,90.852ZM80.293,57.029L80.293,79.861L31.354,79.861L31.354,57.029L80.293,57.029ZM24.471,90.262L30.938,81.866C30.939,81.865 30.939,81.863 30.94,81.862L80.706,81.862C80.707,81.863 80.707,81.865 80.708,81.866L87.175,90.262L24.471,90.262ZM22.386,36.872L28.468,42.954C28.749,43.235 29.131,43.393 29.529,43.393C29.927,43.393 30.308,43.235 30.59,42.954L36.672,36.872L49.325,36.872L49.325,43.267L45.736,43.267C45.361,43.267 45.018,43.476 44.847,43.81C44.676,44.143 44.705,44.543 44.923,44.849L50.012,51.966C50.2,52.228 50.503,52.384 50.825,52.384C51.147,52.384 51.451,52.228 51.638,51.966L56.726,44.849C56.944,44.543 56.973,44.143 56.802,43.81C56.631,43.476 56.287,43.267 55.913,43.267L52.325,43.267L52.325,35.372C52.325,34.544 51.654,33.872 50.825,33.872L36.671,33.872L31.029,28.23L31.029,24.03L38.786,24.03C43.105,24.03 46.673,20.789 47.206,16.613L71.333,16.613L71.333,20.515C66.807,21.238 63.333,25.158 63.333,29.884C63.333,34.611 66.807,38.531 71.333,39.254L71.333,43.267L67.744,43.267C67.369,43.267 67.026,43.476 66.855,43.81C66.684,44.143 66.713,44.543 66.931,44.849L72.02,51.966C72.208,52.228 72.511,52.384 72.833,52.384C73.155,52.384 73.459,52.228 73.646,51.966L78.734,44.849C78.952,44.543 78.981,44.143 78.81,43.81C78.639,43.476 78.295,43.267 77.921,43.267L74.333,43.267L74.333,39.254C78.859,38.531 82.333,34.611 82.333,29.884C82.333,25.158 78.86,21.238 74.333,20.515L74.333,15.113C74.333,14.285 73.662,13.613 72.833,13.613L61.058,13.613L61.058,7.738L58.058,7.738L58.058,13.613L47.251,13.613C46.931,9.218 43.261,5.738 38.786,5.738L21.571,5.738C17.096,5.738 13.426,9.218 13.106,13.613L6.74,13.613L6.74,16.613L13.15,16.613C13.683,20.789 17.252,24.03 21.57,24.03L28.028,24.03L28.028,28.23L22.386,33.872L6.74,33.872L6.74,36.872L14.907,36.872L14.907,58.779L6.74,58.779L6.74,61.779L16.407,61.779C17.236,61.779 17.907,61.107 17.907,60.279L17.907,36.872L22.386,36.872ZM50.823,49.664L47.678,45.267L53.967,45.267L50.823,49.664ZM72.833,49.664L69.688,45.267L75.977,45.267L72.833,49.664ZM78.333,29.884C78.333,32.916 75.866,35.384 72.833,35.384C69.8,35.384 67.333,32.916 67.333,29.884C67.333,26.852 69.8,24.385 72.833,24.385C75.865,24.385 78.333,26.852 78.333,29.884ZM17.074,15.534L17.074,14.234C17.074,11.755 19.091,9.738 21.571,9.738L38.786,9.738C41.265,9.738 43.283,11.755 43.283,14.234L43.283,15.534C43.283,18.013 41.266,20.03 38.786,20.03L21.571,20.03C19.091,20.03 17.074,18.014 17.074,15.534ZM29.529,30.973L33.929,35.372L29.529,39.772L25.129,35.372L29.529,30.973ZM63.028,68.93C63.011,68.838 63.011,68.157 63.028,68.065C63.028,68.065 64.49,67.204 64.538,67.157C64.941,66.766 65.112,66.095 64.917,65.485L64.35,64.158C64.103,63.678 63.528,63.342 62.946,63.342C62.879,63.342 61.246,63.736 61.246,63.736C61.155,63.676 60.652,63.164 60.611,63.102C60.611,63.102 61.037,61.454 61.038,61.387C61.046,60.824 60.692,60.229 60.131,59.941L58.755,59.374C58.214,59.204 57.547,59.387 57.163,59.782C57.116,59.831 56.255,61.292 56.255,61.292C56.071,61.328 55.575,61.328 55.391,61.292C55.391,61.292 54.53,59.83 54.483,59.782C54.196,59.486 53.761,59.31 53.32,59.31C53.165,59.31 53.017,59.333 52.817,59.4L51.453,59.97C50.955,60.226 50.599,60.822 50.607,61.386C50.608,61.453 51.033,63.098 51.033,63.098C50.994,63.156 50.472,63.679 50.385,63.733C50.385,63.733 48.758,63.342 48.691,63.342C48.116,63.342 47.542,63.677 47.267,64.216L46.7,65.577C46.532,66.112 46.707,66.784 47.116,67.173C47.154,67.209 48.62,68.162 48.62,68.162C48.636,68.242 48.637,68.848 48.622,68.929C48.622,68.929 47.157,69.792 47.109,69.838C46.705,70.229 46.533,70.901 46.726,71.505L47.296,72.87C47.549,73.359 48.136,73.714 48.71,73.714C48.778,73.713 50.423,73.289 50.423,73.289C50.515,73.351 50.995,73.841 51.034,73.9C51.034,73.9 50.609,75.544 50.608,75.611C50.6,76.174 50.954,76.769 51.515,77.057L52.88,77.62C53.409,77.793 54.096,77.614 54.483,77.215C54.53,77.166 55.39,75.705 55.39,75.705C55.575,75.669 56.07,75.669 56.255,75.705C56.255,75.705 57.116,77.166 57.162,77.215C57.449,77.511 57.884,77.687 58.325,77.687C58.48,77.687 58.628,77.664 58.828,77.597L60.195,77.027C60.692,76.769 61.046,76.174 61.038,75.611C61.037,75.544 60.612,73.9 60.612,73.9C60.651,73.842 61.131,73.353 61.224,73.289C61.224,73.289 62.877,73.714 62.949,73.714C63.509,73.714 64.098,73.359 64.38,72.808L64.947,71.436C65.114,70.902 64.943,70.231 64.54,69.84C64.49,69.791 63.028,68.93 63.028,68.93ZM62.912,72.017L61.433,71.627C60.908,71.486 60.279,71.807 59.636,72.483C59.128,73.018 58.902,73.474 58.926,73.93C58.928,73.99 59.343,75.586 59.343,75.586L58.35,76.001C58.35,76.001 57.503,74.567 57.465,74.525C57.35,74.398 57.001,74.011 55.825,74.011C54.65,74.011 54.3,74.397 54.175,74.536C54.135,74.579 53.301,75.999 53.301,75.999L52.306,75.587C52.306,75.587 52.72,73.977 52.723,73.919C52.746,73.474 52.52,73.018 52.012,72.482C51.456,71.897 50.936,71.6 50.397,71.6L50.391,71.6C50.331,71.602 48.736,72.016 48.736,72.016L48.323,71.021C48.323,71.021 49.756,70.176 49.798,70.137C50.144,69.824 50.312,69.304 50.312,68.547C50.312,67.8 50.139,67.266 49.797,66.957C49.764,66.928 48.321,65.992 48.321,65.992L48.723,65.03C48.723,65.03 50.52,65.427 50.659,65.382C50.921,65.341 51.379,65.175 52.012,64.511C52.52,63.976 52.746,63.52 52.722,63.062C52.72,63.003 52.305,61.408 52.305,61.408L53.3,60.995C53.3,60.995 54.146,62.426 54.184,62.469C54.299,62.596 54.648,62.984 55.825,62.984C57.002,62.984 57.351,62.596 57.476,62.458C57.515,62.414 58.35,60.995 58.35,60.995L59.345,61.408C59.345,61.408 58.931,63.02 58.928,63.078C58.905,63.526 59.131,63.983 59.639,64.519C60.262,65.174 60.712,65.348 61.001,65.394C61.137,65.433 62.926,65.03 62.926,65.03L63.327,65.973C63.327,65.973 61.896,66.818 61.853,66.857C61.726,66.972 61.339,67.322 61.339,68.497C61.339,69.672 61.726,70.022 61.884,70.164C61.922,70.197 63.328,71.022 63.328,71.022L62.912,72.017ZM55.827,64.637C53.684,64.637 51.942,66.38 51.942,68.523C51.942,70.665 53.685,72.408 55.827,72.408C57.969,72.408 59.712,70.665 59.712,68.523C59.712,66.38 57.969,64.637 55.827,64.637ZM55.827,70.749C54.599,70.749 53.6,69.75 53.6,68.523C53.6,67.296 54.599,66.296 55.827,66.296C57.055,66.296 58.053,67.295 58.053,68.523C58.053,69.751 57.055,70.749 55.827,70.749Z" style="fill:rgb(6,47,110);fill-opacity:0.83;fill-rule:nonzero;"/>
        </g>
        <g transform="matrix(1.21775,0,0,1.21775,-1011.45,-894.632)">
            <g>
                <path d="M506.76,242.828L388.36,117.388C381.083,109.67 368.936,109.318 361.218,116.601C353.512,123.878 353.154,136.031 360.437,143.743L466.402,255.999L360.437,368.268C353.154,375.98 353.512,388.127 361.218,395.41C364.93,398.911 369.672,400.645 374.396,400.645C379.497,400.645 384.591,398.623 388.361,394.635L506.761,269.189C513.742,261.785 513.742,250.226 506.76,242.828Z" style="fill:rgb(9,47,110);fill-opacity:0.75;fill-rule:nonzero;"/>
            </g>
            <g>
                <path d="M151.566,368.262L45.608,255.999L151.566,143.737C158.843,136.025 158.491,123.871 150.779,116.595C143.073,109.318 130.913,109.67 123.637,117.382L5.237,242.822C-1.745,250.22 -1.745,261.785 5.237,269.184L123.643,394.63C127.419,398.63 132.507,400.646 137.608,400.646C142.331,400.646 147.074,398.905 150.779,395.404C158.498,388.127 158.843,375.974 151.566,368.262Z" style="fill:rgb(9,47,110);fill-opacity:0.75;fill-rule:nonzero;"/>
            </g>
            <g>
                <path d="M287.061,52.697C276.584,51.11 266.779,58.303 265.179,68.78L208.859,437.42C207.259,447.903 214.459,457.702 224.942,459.302C225.928,459.449 226.9,459.52 227.867,459.52C237.192,459.52 245.371,452.717 246.824,443.219L303.144,74.579C304.744,64.095 297.544,54.297 287.061,52.697Z" style="fill:rgb(9,47,110);fill-opacity:0.75;fill-rule:nonzero;"/>
            </g>
        </g>
    </g>
</svg>
